<svg xmlns="http://www.w3.org/2000/svg" width="319.464" height="181.565" viewBox="0 0 319.464 181.565">
  <g id="New_Layer" data-name="New Layer" transform="translate(143.1 650.975)">
    <g id="Grupo_1" data-name="Grupo 1" transform="translate(-143.1 -650.975)">
      <path id="Caminho_1" data-name="Caminho 1" d="M251.42-650.628a11.59,11.59,0,0,0-6.722,4.019,11.893,11.893,0,0,0-2.739,4.268c-.534,1.458-1.031,2.241-1.529,2.383-.391.142-.782.178-.818.107-.036-.036-.533-.889-1.067-1.814-1.209-2.1-3.13-3.521-6.118-4.517a12.6,12.6,0,0,0-9.995,1.067c-2.063,1.067-1.956,1.565.32,1.352a8.676,8.676,0,0,1,2.845.142,2.608,2.608,0,0,0,2.063-.071c1.316-.534,2.419-.213,1.814.5s.356,1.565,2.027,1.814c2.525.427,2.917.533,2.917,1.067,0,.747-.569.96-2.632,1.067a15.543,15.543,0,0,0-3.166.5c-1.1.356-1.28.569-.925.96.427.534.285.6-3.735,1.956a17.237,17.237,0,0,0-3.628,1.778c-3.521,2.419-7.256,8.643-7.256,12.093,0,.96.142,1.743.285,1.743a12.962,12.962,0,0,0,2.205-1.992,36.694,36.694,0,0,1,4.2-3.592c2.312-1.672,2.419-1.849,1.85-2.952-.569-1.067.249-1.209.925-.178.462.711.783.854,1.529.64,1.743-.391,3.628-1.565,3.948-2.419.213-.534.534-.783.818-.676a8.4,8.4,0,0,0,2.881-1.458c2.241-1.494,3.059-1.885,3.059-1.423a18.347,18.347,0,0,1-2.1,2.312,17.417,17.417,0,0,0-5.371,13.338c0,4.339.783,7.291,2.419,9.177.534.6.6.5,1.031-1.565a11.929,11.929,0,0,1,1.352-3.521c1.067-1.565,1.067-1.6.178-2.739a3.543,3.543,0,0,1-.711-1.778c0-.889.036-.889.889-.32,1.921,1.245,2.312.676,2.49-3.521.107-1.565.32-2.881.534-2.952.178-.071.356-.569.356-1.067,0-2.774,2.205-6.616,3.7-6.4,1,.142.854.747-.925,3.877-1.245,2.241-1.458,2.952-1.458,4.766a8.271,8.271,0,0,0,.534,3.2c.6,1.174,4.837,5.335,5.122,5.086a5.634,5.634,0,0,0-.213-1.885,10.931,10.931,0,0,1-.142-3.415c.178-1.387.107-1.885-.356-2.419-.534-.569-.569-1.138-.427-3.415.249-2.845.391-3.379.925-3.379.391,0,2.063,3.272,3.094,6.047,2.1,5.691,2.383,7.718,2.419,16.183v7.469l-1.209,3.912a40.378,40.378,0,0,1-2.419,6.153c-1.245,2.205-3.45,5.122-4.055,5.335-.178.071-.32-1.707-.285-4.09.036-5.762-1.138-10.67-3.237-13.622-1.352-1.885-.569-1.956,1.956-.178,1.85,1.352,2.312,1.174,1.6-.5a3.329,3.329,0,0,0-1.814-1.636c-1.458-.676-1.672-1.352-.462-1.529a24.9,24.9,0,0,0,2.525-.5c1.423-.285,1.778-.5,1.529-.818a2.707,2.707,0,0,0-1.28-.64c-1.1-.214-4.2.676-4.766,1.387-.462.533-1.423.676-1.423.213,0-.64,1.885-2.952,2.845-3.45,1.352-.676,1.387-1.245.107-1.245-1.814.036-3.663,2.134-3.663,4.161,0,1.352-.142,1.387-1.956.6a2.516,2.516,0,0,0-2.347-.107c-1.458.569-1.28,1.031.391,1.031.782,0,1.423.107,1.423.249a6.1,6.1,0,0,1-1.28,1.529,8.568,8.568,0,0,0-2.632,5.229c0,1.494.5,1.494,1.1.036a8.423,8.423,0,0,1,1.352-2.1c.5-.533,1.174-1.352,1.494-1.778.534-.783.569-.711.569,1.672-.036,2.49.854,4.944,1.707,4.837.427-.071.534-4.659.107-4.908-.391-.249-.356-2.525.071-2.81.213-.142.356.285.356,1.031,0,1.031.285,1.565,1.387,2.632,1.352,1.281,1.387,1.423,1.636,4.446.533,6.438-.676,10.457-4.09,13.516-3.912,3.521-11.7,6.189-20.274,6.971-2.454.249-5.406.569-6.58.782a33.569,33.569,0,0,1-9.248-.036c-1.174-.178-4.3-.5-6.936-.711s-5.762-.64-6.936-.889c-2.845-.676-3.379-.676-3.379.142,0,1.458,5.264,5.513,9.319,7.149,4.517,1.778,7.54,2.241,14.69,2.241,5.549,0,6.971-.142,10.67-.96,6.118-1.316,9.39-2.1,14.049-3.343,7.185-1.885,11.311-2.561,15.934-2.561a54.484,54.484,0,0,1,18.068,3.415,11.11,11.11,0,0,0,3.521.889c.534-.889-4.41-4.979-8.358-6.971a36.406,36.406,0,0,0-8-2.739c-.783-.213-1.6-.427-1.85-.5-.462-.107.213-2.1,1.956-5.655a45.174,45.174,0,0,0,3.13-9.6c.569-3.308.249-13.551-.534-17.144-.818-3.735-3.166-9.959-4.482-11.915a6.47,6.47,0,0,1-.889-1.565,31.8,31.8,0,0,0-2.134-3.414,26.465,26.465,0,0,1-2.134-3.486c0-.782.676-.249,2.383,1.849,1,1.245,2.276,2.7,2.81,3.308a3.473,3.473,0,0,1,1.067,2.205,4.973,4.973,0,0,0,1.565,2.845,22.434,22.434,0,0,1,2.632,4.019c.6,1.281,1.138,2.383,1.209,2.49.249.356.783-1,1.28-3.308,1.529-6.687-.071-10.315-5.833-13.374a6.1,6.1,0,0,1-2.134-1.529c0-.214,1-.32,2.774-.249,2.6.142,2.739.107,2.845-.676.142-.889.711-1.031,1-.249.32.747,3.948,3.13,4.41,2.845a1.882,1.882,0,0,0,.356-1.28c0-1.352.32-1.316,1.778.213,1.352,1.387,2.6,1.778,4.837,1.423,1.138-.142,1.565-.391,1.565-.818-.036-1.636-3.023-4.837-5.762-6.224-1.778-.889-2.17-.96-6.687-.96-4.659,0-4.873.036-7.825,1.245-3.45,1.458-3.557,1.458-3.557.6,0-1.281,2.454-3.592,5.157-4.873,1.956-.96,2.668-1.458,2.739-2.063.107-.676.285-.782,1.387-.676,1.921.178,8.607-1.992,8.785-2.845C262.02-650.486,255.013-651.553,251.42-650.628Z" transform="translate(-65.08 650.975)" fill="#11847d" fill-rule="evenodd"/>
      <path id="Caminho_2" data-name="Caminho 2" d="M204.877-619.767a41.224,41.224,0,0,0-15.116,8.038,35.235,35.235,0,0,0-12.52,28.739c.249,6.118,1.031,9.71,2.988,13.978,1.636,3.628,4.873,8.43,5.406,8.109a7.62,7.62,0,0,0-1.031-2.81c-7.007-14.369-6.011-27.565,2.845-38.449,3.486-4.268,7.114-6.865,14.725-10.564a44.8,44.8,0,0,0,8.572-4.979,30.207,30.207,0,0,0,2.845-2.49C213.983-620.8,207.652-620.514,204.877-619.767Z" transform="translate(-63.282 631.353)" fill="#11847d" fill-rule="evenodd"/>
      <path id="Caminho_3" data-name="Caminho 3" d="M276.891-424.911c-2.7.462-8.963,1.956-14.761,3.557a28.764,28.764,0,0,1-4.161.889,1.6,1.6,0,0,0-1.138.32,4.594,4.594,0,0,1-1.885.534c-.96.142-2.668.427-3.841.6-3.592.6-8.963.782-10.208.356-.747-.285-1.245-.285-1.494-.036-.569.569,1.138,2.063,4.019,3.486,2.383,1.174,2.952,1.316,6.047,1.423,3.948.142,7.114-.569,18-3.984a105.622,105.622,0,0,1,11.2-3.2,40.622,40.622,0,0,1,19.278-.071,37.122,37.122,0,0,1,3.77,1.067c.676.427.854-.534.213-1.031a29.36,29.36,0,0,0-8.181-3.735c-2.205-.569-3.841-.711-8.465-.676A73.377,73.377,0,0,0,276.891-424.911Z" transform="translate(-103.284 505.641)" fill="#11847d" fill-rule="evenodd"/>
      <path id="Caminho_4" data-name="Caminho 4" d="M716.2-388.876a54.849,54.849,0,0,0-4.019,5.157c-.107.427.391.534,2.917.534,3.486,0,2.81.462,7.54-5.193,1.85-2.205,3.557-4.126,3.735-4.233.854-.569-.356-.889-3.166-.889l-3.094.036Z" transform="translate(-407.964 485.078)" fill="#11847d" fill-rule="evenodd"/>
      <path id="Caminho_5" data-name="Caminho 5" d="M-142.993-351.228l.107,3.308,4.09.071c2.241,0,4.3.071,4.553.071.32.036.427,2.774.427,12.484v12.449h6.758v-24.862l4.731-.107,4.695-.107.107-1.778a16.782,16.782,0,0,0-.107-3.308l-.213-1.494H-143.1Z" transform="translate(143.1 459.95)" fill="#11847d" fill-rule="evenodd"/>
      <path id="Caminho_6" data-name="Caminho 6" d="M276-338.772v15.863h6.758l.071-8.892.107-8.892,2.383,1.885c1.28,1,4.233,3.272,6.544,5.051,2.276,1.743,6.331,4.944,9,7.042,4.482,3.557,4.837,3.77,5.015,3.023.178-.6.178-22.3.036-29.913l-.036-.96h-6.758v8.714c0,4.8-.142,8.714-.32,8.714-.285,0-1.352-.818-9.674-7.363-8-6.3-10.848-8.5-11.951-9.283L276-354.6Z" transform="translate(-126.935 460.014)" fill="#11847d" fill-rule="evenodd"/>
      <path id="Caminho_7" data-name="Caminho 7" d="M385.071-338.7l.107,15.9,7.007-.071c7.932-.107,9.6-.391,12.484-2.312a15.018,15.018,0,0,0,5.762-6.758,11.482,11.482,0,0,0,1.529-5.584,15.8,15.8,0,0,0-1.672-8.679,18.423,18.423,0,0,0-7.434-7.042l-2.383-1.138-7.754-.107L385-354.6Zm17.144-6.936a9.4,9.4,0,0,1,2.205,10.848c-1.672,3.592-5.264,5.477-10.457,5.477H391.4v-18.46l3.308-.107C398.409-347.984,399.9-347.558,402.215-345.637Z" transform="translate(-197.166 460.014)" fill="#11847d" fill-rule="evenodd"/>
      <path id="Caminho_8" data-name="Caminho 8" d="M485.665-353.3c-1.458,2.419-3.379,5.8-6.082,10.457-1.352,2.347-4.41,7.683-6.829,11.88-2.383,4.161-4.268,7.718-4.161,7.9.249.462,36.279.213,36.173-.249-.036-.178-1.387-2.632-3.023-5.477-7.149-12.378-11.488-19.847-13.267-22.87L486.59-354.9Zm2.739,14.974c2.419,3.948,4.873,8.252,4.873,8.536,0,.178-2.952.285-6.58.285-4.73,0-6.58-.107-6.58-.427,0-.534,6.118-10.955,6.473-10.955A14.738,14.738,0,0,1,488.4-338.325Z" transform="translate(-251.023 460.208)" fill="#11847d" fill-rule="evenodd"/>
      <path id="Caminho_9" data-name="Caminho 9" d="M589.071-338.6l.107,15.934h3.2l3.2-.036v-8.5a71.21,71.21,0,0,1,.284-8.643c.178-.071,4.233,3.735,9,8.43,4.8,4.731,8.856,8.572,9,8.572a15.769,15.769,0,0,0,2.49-2.312l2.205-2.276-4.3-4.161a45.078,45.078,0,0,1-4.268-4.446,7.566,7.566,0,0,1,1.529-1.85,9.425,9.425,0,0,0,3.094-7.22,6.89,6.89,0,0,0-1.031-4.268A11.591,11.591,0,0,0,608.7-354c-.925-.391-3.379-.5-10.457-.5H589Zm18.033-8.216c1.031,1.316.925,2.49-.285,3.735l-1.031,1.031h-5.015c-5.691,0-5.406.178-5.264-3.45l.071-2.241h10.813Z" transform="translate(-328.608 459.95)" fill="#11847d" fill-rule="evenodd"/>
      <path id="Caminho_10" data-name="Caminho 10" d="M683-338.672v15.792l12.307.107c6.758.071,12.449.036,12.627-.071.391-.249.462-.96.391-3.984l-.071-2.419-8.963-.071-9-.107-.107-2.917-.107-2.952,6.865-.071,6.865-.107-.071-2.134c-.036-1.174-.071-2.668-.071-3.308l-.036-1.138H690.185l-.142-2.845-.107-2.845h4.624c4.979,0,12.876-.32,13.622-.534.462-.178.64-4.588.213-5.655-.178-.5-1.672-.569-12.8-.569H683Z" transform="translate(-389.174 459.95)" fill="#11847d" fill-rule="evenodd"/>
      <path id="Caminho_11" data-name="Caminho 11" d="M-55.407-352.607c-.285.462-1.245,2.1-2.134,3.664s-3.841,6.687-6.58,11.382c-7.363,12.7-8.679,15.081-8.43,15.472.285.462,36.1.427,36.1-.036,0-.391-.6-1.458-7.469-13.3-2.6-4.517-5.975-10.35-7.5-12.982a36.56,36.56,0,0,0-3.13-4.908C-54.731-353.389-55.122-353.069-55.407-352.607Zm1.885,13.836c0,.178,1.28,2.49,2.845,5.157s2.845,4.944,2.845,4.979c0,.071-2.952.142-6.58.142-7.576,0-7.4.107-5.335-3.2.64-1.067,2.027-3.45,3.059-5.264,1.778-3.13,1.885-3.237,2.525-2.7A2.31,2.31,0,0,1-53.521-338.771Z" transform="translate(97.661 459.195)" fill="#11847d" fill-rule="evenodd"/>
      <path id="Caminho_12" data-name="Caminho 12" d="M47-337.886c0,12.164.107,15.65.462,15.757a26.59,26.59,0,0,0,3.557,0l3.094-.142v-8.679c0-4.766.071-8.679.178-8.679s1.814,1.28,3.806,2.845a33.567,33.567,0,0,0,4.019,2.845,28.256,28.256,0,0,0,3.912-2.845,27.878,27.878,0,0,1,3.984-2.845c.32,0,.391,2.063.213,8.679-.249,9.995-.6,9.105,3.628,8.963,1.387-.071,2.6-.142,2.774-.178.391-.071.32-30.908-.107-31.157-.178-.107-2.1,1.209-4.233,2.917-7.789,6.26-9.923,7.932-10.244,7.932a43.475,43.475,0,0,1-4.446-3.308c-8.074-6.4-9.817-7.718-10.208-7.718C47.107-353.5,47-348.912,47-337.886Z" transform="translate(20.615 459.306)" fill="#11847d" fill-rule="evenodd"/>
      <path id="Caminho_13" data-name="Caminho 13" d="M172.29-350.2c-.711,1.209-3.237,5.549-5.62,9.674-6.829,11.773-8.181,14.085-9.461,16.255a9.454,9.454,0,0,0-1.209,2.49c0,.391,3.094.462,18,.391,9.888-.036,18.033-.107,18.14-.178.071-.107-2.134-4.161-4.944-9.034s-6.758-11.773-8.785-15.33c-2.205-3.841-3.948-6.473-4.268-6.473C173.855-352.437,173-351.441,172.29-350.2Zm3.877,13.943c.889,1.565,2.241,3.912,2.988,5.193a15.407,15.407,0,0,1,1.387,2.739c0,.32-1.743.427-6.616.427-6.153,0-6.616-.036-6.367-.6.64-1.672,6.331-10.813,6.651-10.706A13.743,13.743,0,0,1,176.167-336.254Z" transform="translate(-49.616 458.598)" fill="#11847d" fill-rule="evenodd"/>
      <path id="Caminho_14" data-name="Caminho 14" d="M9-200.731v12.769l2.241.142a11.48,11.48,0,0,0,2.49.036,15.651,15.651,0,0,0,.249-3.806v-3.7l3.308-.142c4.908-.213,7.22-1.565,9.248-5.406,2.241-4.268-.356-10.1-5.335-11.951-1.6-.6-2.774-.711-7.042-.711H9Zm10.67-7.256a3.756,3.756,0,0,1,2.134,3.806c0,2.7-.889,3.379-4.695,3.628l-3.13.178v-8.145h2.312A8.764,8.764,0,0,1,19.67-207.987Z" transform="translate(45.099 369.101)" fill="#11847d" fill-rule="evenodd"/>
      <path id="Caminho_15" data-name="Caminho 15" d="M67.285-213.232c-.178.142-.285,5.9-.285,12.84v12.555h5.406l-.071-3.664c-.142-5.406-.071-6.722.391-6.438a18.051,18.051,0,0,1,2.1,2.845c.96,1.458,2.276,3.415,2.952,4.339a17.329,17.329,0,0,1,1.423,2.276c.178.534.711.64,3.45.64a14.139,14.139,0,0,0,3.2-.178c0-.107-1.28-2.063-2.845-4.339l-2.881-4.161,1.458-1.209a7.775,7.775,0,0,0,3.2-6.793,9.984,9.984,0,0,0-.5-3.521,17.51,17.51,0,0,0-5.086-4.766C78.062-213.268,67.676-213.659,67.285-213.232Zm10.137,5.3a3.029,3.029,0,0,1,1.814,1.956c.569,1.423.569,1.529-.213,2.881a3.939,3.939,0,0,1-1.316,1.529,33.237,33.237,0,0,1-5.335.249c-.391-.036-.427-.676-.285-3.343.142-1.778.249-3.379.249-3.557C72.335-208.68,76.105-208.466,77.421-207.933Z" transform="translate(7.728 369.046)" fill="#11847d" fill-rule="evenodd"/>
      <path id="Caminho_16" data-name="Caminho 16" d="M199-200.7v12.8h4.98V-213.5H199Z" transform="translate(-77.322 369.101)" fill="#11847d" fill-rule="evenodd"/>
      <path id="Caminho_17" data-name="Caminho 17" d="M231.135-210.443c-.711,1.565-1.672,3.628-2.134,4.624-1.494,3.379-6.971,15.259-7.469,16.29-.889,1.85-.747,1.992,2.205,1.992H226.4l.747-1.778.747-1.778h9.425l.6,1.743c.32.96.747,1.814,1,1.885a40.054,40.054,0,0,0,5.477-.036c.036-.036-1.316-2.952-2.952-6.544-1.672-3.557-4.233-9.212-5.726-12.52-1.494-3.343-2.845-6.189-2.988-6.367S231.882-211.973,231.135-210.443Zm2.881,12.164c1,2.063,1.1,2.525.64,2.7a16.393,16.393,0,0,1-4.731.071,28.067,28.067,0,0,1,2.7-5.477C232.735-200.876,233.34-199.666,234.016-198.279Z" transform="translate(-91.531 368.747)" fill="#11847d" fill-rule="evenodd"/>
      <path id="Caminho_18" data-name="Caminho 18" d="M318-200.76v12.8h5.157l-.107-4.979-.142-4.98h8.963v9.959h5.335l-.071-12.733-.107-12.7h-4.98l-.178,5.157-.178,5.157h-8.536l-.178-5.157-.178-5.157-2.383-.107L318-213.6Z" transform="translate(-153.997 369.165)" fill="#11847d" fill-rule="evenodd"/>
      <path id="Caminho_19" data-name="Caminho 19" d="M388.354-212.841a14.311,14.311,0,0,0-6.26,4.126A11.711,11.711,0,0,0,379-200.072a9.034,9.034,0,0,0,1.067,5.122,12.757,12.757,0,0,0,11.026,7.469c9,.64,15.721-6.616,14.085-15.223a11.372,11.372,0,0,0-3.663-6.793,11.713,11.713,0,0,0-8.643-3.735A14.253,14.253,0,0,0,388.354-212.841Zm7.291,5.406a7.32,7.32,0,0,1,4.161,4.766c1.672,5.015-2.134,9.959-7.612,9.959-3.664,0-5.8-1.245-7.363-4.339-2.063-4.055-.107-8.75,4.482-10.742A7.5,7.5,0,0,1,395.646-207.435Z" transform="translate(-193.3 368.94)" fill="#11847d" fill-rule="evenodd"/>
      <path id="Caminho_20" data-name="Caminho 20" d="M451-211.046v2.49l3.094.107,3.059.107-.071,10.208-.071,10.244h5.371V-208.52h6.438l-.107-2.419-.107-2.383-8.785-.107L451-213.5Z" transform="translate(-239.691 369.101)" fill="#11847d" fill-rule="evenodd"/>
      <path id="Caminho_21" data-name="Caminho 21" d="M508-200.518v12.982h16.041l-.107-2.6-.107-2.561-5.335-.178-5.335-.178-.107-1.565c-.249-3.2-.213-3.2,4.126-3.308l3.806-.107v-4.624l-3.806-.107-3.841-.107v-5.655h5.122c5.8,0,5.442.213,5.264-3.059l-.142-1.921H508Z" transform="translate(-276.418 369.101)" fill="#11847d" fill-rule="evenodd"/>
      <path id="Caminho_22" data-name="Caminho 22" d="M559-200.8v12.8l7.469.107c4.126.071,7.647.036,7.825,0,.213-.071.356-1.245.356-2.6v-2.454h-10.67l-.071-10.244-.107-10.208-2.383-.107L559-213.6Z" transform="translate(-309.278 369.165)" fill="#11847d" fill-rule="evenodd"/>
      <path id="Caminho_23" data-name="Caminho 23" d="M136.67-211.182c-.249.64-2.419,5.406-4.8,10.6C126.32-188.6,126-187.885,126-187.458c0,.391,4.055.676,4.98.32a3.308,3.308,0,0,0,1.138-1.778l.534-1.529,4.766-.107,4.8-.107.747,1.814.747,1.778h2.917c1.6,0,2.81-.107,2.739-.285a19.137,19.137,0,0,1-.889-1.85c-6.722-14.618-10.706-22.941-10.99-23.012C137.275-212.284,136.919-211.822,136.67-211.182Zm2.774,15.97c-.747.5-3.841.391-4.055-.142a9.1,9.1,0,0,1,1-2.917l1.138-2.49,1.209,2.632C139.694-196.03,139.836-195.461,139.445-195.212Z" transform="translate(-30.287 368.276)" fill="#11847d" fill-rule="evenodd"/>
    </g>
  </g>
</svg>
